<svg id="icons_spite_80_products_features" xmlns="http://www.w3.org/2000/svg" width="320" height="80" viewBox="0 0 320 80">
  <g id="Icon_Licensed" transform="translate(0 -12)">
    <rect id="Rectangle_1" data-name="Rectangle 1" width="80" height="80" transform="translate(0 12)" fill="#eee" opacity="0"/>
    <g id="icon-regulated" transform="translate(3.006 23.006)">
      <path id="Path_86497" data-name="Path 86497" d="M1559.85,1384.99a.774.774,0,0,0-.775-.775h-12.706a1.933,1.933,0,0,1-1.355-.414,1.628,1.628,0,0,1-.383-1.3c.127-2.763.006-15.807,0-16.378a1.408,1.408,0,0,1,.334-.867,1.52,1.52,0,0,1,1.107-.4c.746-.023,3.641-.03,7.169-.03,6.973,0,16.46.042,16.6.027a2.075,2.075,0,0,1,1.385.4,1.238,1.238,0,0,1,.341.957v4.207a.774.774,0,1,0,1.548,0v-4.207a2.737,2.737,0,0,0-.845-2.1,3.542,3.542,0,0,0-2.487-.8c-.529,0-8.291-.024-14.838-.028a24.735,24.735,0,0,0,.722-5.872c0-.044-.006-.086-.006-.129,0-.012.006-.022.006-.032s-.01-.036-.011-.055a25.2,25.2,0,0,0-25.208-24.906h-.1a25.2,25.2,0,0,0-25.113,25.118,24.944,24.944,0,0,0,5.949,16.171.117.117,0,0,0,.008.026c.027.046.074.066.109.1a25.191,25.191,0,0,0,19.047,8.815l.026.006h.079a25.059,25.059,0,0,0,12.683-3.462c-.006,1.5-.023,2.724-.052,3.359a3.1,3.1,0,0,0,.866,2.5,3.373,3.373,0,0,0,2.28.84,1.989,1.989,0,0,0,.207-.008h12.639a.773.773,0,0,0,.779-.763Zm-20.177-16.541a35.407,35.407,0,0,0-7.3-1.249h-1.222v-9.175h10.744a27.6,27.6,0,0,1-2.222,10.424Zm-8.527,12.512v-12.213h1.2a34.606,34.606,0,0,1,6.732,1.152,48.988,48.988,0,0,1-6.821,11.021c-.367.026-.739.029-1.11.04Zm-2.441-.062a50.081,50.081,0,0,1-6.9-11.119,28.108,28.108,0,0,1,6.222-1.032h1.566v12.2c-.3-.014-.6-.028-.892-.051Zm-21.892-22.873h10.473a30.394,30.394,0,0,0,2.405,10.768,41.415,41.415,0,0,0-7.66,3.392,23.385,23.385,0,0,1-5.218-14.16Zm5.293-15.484a41.1,41.1,0,0,0,7.235,3.273,39.021,39.021,0,0,0-2.046,10.658h-10.466a23.4,23.4,0,0,1,5.277-13.931Zm16.3-8.6c.394-.033.793-.045,1.191-.06v12.147h-1.371a28.766,28.766,0,0,1-6.855-1.207,30.641,30.641,0,0,1,7.037-10.88Zm3.627-.023a31.759,31.759,0,0,1,7.2,10.957,35,35,0,0,1-6.708,1.153h-1.384v-12.156c.3.009.6.024.894.046Zm-.888,13.657h1.409a35.269,35.269,0,0,0,7.234-1.231,36.251,36.251,0,0,1,2.07,10.132h-10.713Zm-2.952,0h1.4v8.9h-10.754a36.887,36.887,0,0,1,1.992-10.19,30.777,30.777,0,0,0,7.367,1.291Zm-9.355,10.448h10.76v9.175H1528a30.094,30.094,0,0,0-6.792,1.135,30.2,30.2,0,0,1-2.367-10.308Zm24.572-1.548a38.379,38.379,0,0,0-2.109-10.567,42.271,42.271,0,0,0,7.633-3.186,23.375,23.375,0,0,1,5.14,13.753Zm4.478-14.951a40.848,40.848,0,0,1-7.126,2.919,34.588,34.588,0,0,0-6.278-10.239,23.646,23.646,0,0,1,13.405,7.322Zm-21.974-7.242a33.729,33.729,0,0,0-6.043,10.063,41.365,41.365,0,0,1-6.706-2.986,23.651,23.651,0,0,1,12.75-7.076Zm-12.834,39.089a41.5,41.5,0,0,1,7.213-3.138,51.254,51.254,0,0,0,6.26,10.405,23.649,23.649,0,0,1-13.472-7.266Zm21.338,7.271a50.065,50.065,0,0,0,6.184-10.312c.806.244,1.649.529,2.518.855.012,1.923.02,4.126.02,6.1a23.57,23.57,0,0,1-8.721,3.358Zm9.418-16.444a2.927,2.927,0,0,0-.754,1.959c0,.043.013,1.423.028,3.373-.656-.237-1.3-.45-1.913-.642a28.031,28.031,0,0,0,2.245-10.864H1554.1a23.17,23.17,0,0,1-.767,5.26c-3.576,0-6.531.007-7.3.029a2.992,2.992,0,0,0-2.194.883Z" transform="translate(-1505.236 -1332.294)" fill="#0eaf34"/>
      <path id="Path_86498" data-name="Path 86498" d="M1558.4,1363.66a.773.773,0,0,0-.775-.773H1541.2a.774.774,0,0,0,0,1.548h16.424a.774.774,0,0,0,.775-.775Z" transform="translate(-1498.295 -1326.261)" fill="#0eaf34"/>
      <path id="Path_86499" data-name="Path 86499" d="M1554.34,1365.74h-13.134a.774.774,0,1,0,0,1.548h13.134a.774.774,0,1,0,0-1.548Z" transform="translate(-1498.295 -1325.698)" fill="#0eaf34"/>
      <path id="Path_86500" data-name="Path 86500" d="M1554.34,1371.25h-13.134a.774.774,0,1,0,0,1.548h13.134a.774.774,0,1,0,0-1.548Z" transform="translate(-1498.295 -1324.611)" fill="#0eaf34"/>
      <path id="Path_86501" data-name="Path 86501" d="M1554.34,1368.49h-13.134a.774.774,0,1,0,0,1.548h13.134a.774.774,0,1,0,0-1.548Z" transform="translate(-1498.295 -1325.155)" fill="#0eaf34"/>
      <path id="Path_86502" data-name="Path 86502" d="M1569.2,1381.16l-3.247-6.269a6.534,6.534,0,1,0-11.45-.771l-3.779,6.3a.774.774,0,0,0,.946,1.119l2.779-1.083.717,2.63a.777.777,0,0,0,.675.568h.072a.774.774,0,0,0,.7-.437l2.61-5.4a6.6,6.6,0,0,0,1.219.119c.081,0,.162-.01.242-.013l2.689,6.293a.776.776,0,0,0,.713.47h.077a.775.775,0,0,0,.681-.613l.633-3.035,2.731,1.189a.774.774,0,0,0,1-1.066Zm-13.084-.475-.4-1.465a.773.773,0,0,0-1.028-.517l-1.471.573,2.211-3.686a6.554,6.554,0,0,0,2.3,1.754Zm-.663-9.281a4.986,4.986,0,1,1,4.986,4.987,4.986,4.986,0,0,1-4.986-4.987Zm9.766,7.833a.775.775,0,0,0-1.067.552l-.324,1.558-1.57-3.672a6.53,6.53,0,0,0,2.622-1.493l1.944,3.755Z" transform="translate(-1496.286 -1325.869)" fill="#0eaf34"/>
    </g>
  </g>
  <g id="Icon_Support" transform="translate(80 -12)">
    <rect id="Rectangle_1-2" data-name="Rectangle 1" width="80" height="80" transform="translate(0 12)" fill="#eee" opacity="0"/>
    <g id="Group_36909" data-name="Group 36909" transform="translate(-841.75 -229.749)">
      <path id="Path_87297" data-name="Path 87297" d="M880.966,276.045a.8.8,0,1,0-.329,1.557,30.384,30.384,0,0,0,5.38.632v7.783h-8.885a29.3,29.3,0,0,1,.647-5.345.746.746,0,0,0-.555-.868.822.822,0,0,0-1.017.7,28.959,28.959,0,0,0-.666,5.515H865.373a19.906,19.906,0,0,1,.241-2.538.8.8,0,0,0-.65-.918.777.777,0,0,0-.916.651,21.3,21.3,0,0,0-.3,3.6,23.088,23.088,0,0,0,23.063,23.063,21.309,21.309,0,0,0,3.6-.3.8.8,0,0,0-.267-1.569c-.447.077-.909.129-1.375.174a25.44,25.44,0,0,0,1.822-1.856.8.8,0,0,0-1.2-1.047,23.74,23.74,0,0,1-1.786,1.813v-10.11a28.7,28.7,0,0,1,5.051.6.8.8,0,1,0,.33-1.557,30.445,30.445,0,0,0-5.38-.63V287.61h8.885a27.829,27.829,0,0,1-.628,5.2.8.8,0,0,0,1.554.342,29.484,29.484,0,0,0,.665-5.546h10.169a19.905,19.905,0,0,1-.241,2.538.794.794,0,0,0,1.566.267,21.309,21.309,0,0,0,.3-3.6,23.088,23.088,0,0,0-23.063-23.063,21.316,21.316,0,0,0-3.6.3.8.8,0,0,0,.267,1.569c.446-.077.909-.129,1.375-.174a25.273,25.273,0,0,0-1.822,1.856.8.8,0,0,0,1.2,1.047c.534-.594,1.113-1.192,1.786-1.813v10.11a28.706,28.706,0,0,1-5.053-.6Zm-10.692,24.446a21.366,21.366,0,0,1-4.913-12.883H875.54a29.155,29.155,0,0,0,1.8,9.331,28.169,28.169,0,0,0-7.066,3.552Zm1.071,1.192a26.618,26.618,0,0,1,6.6-3.266,29.123,29.123,0,0,0,6.915,9.775,21.417,21.417,0,0,1-13.514-6.509Zm14.672,5.412a27.491,27.491,0,0,1-6.538-9.138,27.186,27.186,0,0,1,6.538-.973Zm0-11.7a28.672,28.672,0,0,0-7.146,1.082,27.564,27.564,0,0,1-1.741-8.868h8.887Zm17.334-22.26a21.37,21.37,0,0,1,4.913,12.883H898.086a29.176,29.176,0,0,0-1.8-9.331,28.17,28.17,0,0,0,7.065-3.553Zm-1.071-1.192a26.619,26.619,0,0,1-6.6,3.266,29.131,29.131,0,0,0-6.915-9.775,21.418,21.418,0,0,1,13.515,6.509Zm-14.672-5.412a27.5,27.5,0,0,1,6.538,9.138,27.185,27.185,0,0,1-6.538.973Zm0,11.71a28.864,28.864,0,0,0,7.149-1.082,27.556,27.556,0,0,1,1.738,8.858h-8.887Z" transform="translate(-5.457 -5.457)" fill="#0eaf34"/>
      <path id="Path_87298" data-name="Path 87298" d="M922.27,308.75a13.52,13.52,0,1,0,0,27.039,13.341,13.341,0,0,0,6.889-1.9l5.585,1.855a.793.793,0,0,0,1-1l-1.855-5.585a13.341,13.341,0,0,0,1.9-6.889,13.536,13.536,0,0,0-13.519-13.52Zm10.082,19.875a.8.8,0,0,0-.085.681l1.472,4.432-4.432-1.472a.816.816,0,0,0-.681.085,11.731,11.731,0,0,1-6.356,1.847,11.929,11.929,0,1,1,11.93-11.929,11.73,11.73,0,0,1-1.848,6.356Z" transform="translate(-21.827 -21.827)" fill="#0eaf34"/>
      <path id="Path_87299" data-name="Path 87299" d="M862.27,248.75a13.536,13.536,0,0,0-13.52,13.52,13.347,13.347,0,0,0,1.9,6.889l-1.855,5.585a.794.794,0,0,0,1.005,1l5.585-1.855a13.339,13.339,0,0,0,6.889,1.9,13.52,13.52,0,1,0,0-27.04Zm0,25.449a11.731,11.731,0,0,1-6.356-1.847.816.816,0,0,0-.681-.085l-4.432,1.472,1.472-4.433a.8.8,0,0,0-.085-.681,11.731,11.731,0,0,1-1.847-6.356,11.929,11.929,0,1,1,11.93,11.931Z" fill="#0eaf34"/>
      <path id="Path_87300" data-name="Path 87300" d="M927.429,279.431l-1.9,1.9a29.451,29.451,0,0,0-29.352-27.578,28.54,28.54,0,0,0-6.052.655.795.795,0,1,0,.336,1.554,26.971,26.971,0,0,1,5.716-.618,27.861,27.861,0,0,1,27.751,25.832l-1.74-1.741a.8.8,0,0,0-1.125,1.125l3.181,3.181a.8.8,0,0,0,1.125,0l3.181-3.181a.8.8,0,0,0-1.125-1.125Z" transform="translate(-14.825 -1.819)" fill="#0eaf34"/>
      <path id="Path_87301" data-name="Path 87301" d="M850.108,303.289l1.9-1.9a29.449,29.449,0,0,0,29.35,27.58,28.54,28.54,0,0,0,6.052-.655.795.795,0,0,0-.336-1.554,26.973,26.973,0,0,1-5.716.618,27.861,27.861,0,0,1-27.749-25.829l1.738,1.738a.8.8,0,0,0,1.125-1.125l-3.181-3.181a.8.8,0,0,0-1.125,0l-3.181,3.181a.8.8,0,0,0,1.125,1.125Z" transform="translate(0 -18.189)" fill="#0eaf34"/>
    </g>
  </g>
  <g id="Icon_Transparent" transform="translate(160 -12)">
    <rect id="Rectangle_1-3" data-name="Rectangle 1" width="80" height="80" transform="translate(0 12)" fill="#eee" opacity="0"/>
    <g id="Group_36045" data-name="Group 36045" transform="translate(-779.068 -949.209)">
      <path id="Path_86851" data-name="Path 86851" d="M803.9,992.576a1.14,1.14,0,0,0-1.726,1.49l10.683,12.377a1.139,1.139,0,0,0,.863.394h.083a1.135,1.135,0,0,0,.879-.527l21.12-33.323a1.14,1.14,0,1,0-1.925-1.22l-20.3,32.025Z" transform="translate(2.024)" fill="#0eaf34"/>
      <path id="Path_86852" data-name="Path 86852" d="M847.334,1023.91,834.2,1010.772a23.392,23.392,0,0,0,1.6-22.716,1.14,1.14,0,1,0-2.064.968,21.163,21.163,0,1,1-9.8-10,1.14,1.14,0,1,0,1.012-2.043,23.457,23.457,0,1,0,2.393,40.647l13.135,13.133a1.137,1.137,0,0,0,1.612,0l5.244-5.242a1.141,1.141,0,0,0,0-1.613Zm-6.05,4.437-11.835-11.836,3.69-3.572,11.777,11.777Z" transform="translate(0 0.623)" fill="#0eaf34"/>
      <path id="Path_86853" data-name="Path 86853" d="M813.8,1009.48a15.018,15.018,0,0,1-15-15,1.14,1.14,0,0,0-2.28,0,17.3,17.3,0,0,0,17.28,17.28,1.14,1.14,0,0,0,0-2.28Z" transform="translate(1.016 4.148)" fill="#0eaf34"/>
    </g>
  </g>
  <g id="Icon_Secure" transform="translate(240 -12)">
    <rect id="Rectangle_1-4" data-name="Rectangle 1" width="80" height="80" transform="translate(0 12)" fill="#eee" opacity="0"/>
    <g id="icon-secure" transform="translate(6.003 23.003)">
      <g id="Group_35623" data-name="Group 35623" transform="translate(14.422)">
        <path id="Path_86485" data-name="Path 86485" d="M126.83,1127.59c-.021-3.666-.043-7.331-.043-10.994a.969.969,0,0,0-1.708-.628c-2.182,2.568-6.548,4.164-11.392,4.164-5.8,0-10.855-2.3-12.3-5.593a.969.969,0,0,0-1.774,0c-1.449,3.293-6.507,5.593-12.3,5.593-4.846,0-9.211-1.6-11.392-4.164a.969.969,0,0,0-1.708.628c0,2.312-.016,9.471-.028,11.784.659-.029,1.322-1.884,1.94-1.682.009-1.66.021-6.229.024-7.889a19,19,0,0,0,11.164,3.261c5.683,0,10.8-2.1,13.189-5.254,2.39,3.158,7.506,5.254,13.19,5.254a19.006,19.006,0,0,0,11.164-3.261q.008,4.4.04,8.793c.022,3.663.044,7.326.044,10.984,0,10.184-5.536,19.809-14.934,26.752a5.3,5.3,0,0,1,1.147,1.578c9.9-7.307,15.726-17.51,15.726-28.33q-.009-5.5-.049-11Z" transform="translate(-74.179 -1113.963)" fill="#0eaf34"/>
      </g>
      <g id="Group_35636" data-name="Group 35636" transform="translate(0 15.345)">
        <g id="Group_35624" data-name="Group 35624" transform="translate(7.4 16.468)">
          <path id="Path_86486" data-name="Path 86486" d="M68.692,1164.17a.934.934,0,0,1-.956-.91v-19.2a.957.957,0,0,1,1.912,0v19.2a.934.934,0,0,1-.956.91Z" transform="translate(-67.736 -1143.15)" fill="#0eaf34"/>
        </g>
        <g id="Group_35625" data-name="Group 35625" transform="translate(3.556 15.394)">
          <path id="Path_86487" data-name="Path 86487" d="M105.194,1144.08H65.165a.956.956,0,1,1,0-1.913h40.029a.956.956,0,1,1,0,1.913Z" transform="translate(-64.21 -1142.165)" fill="#0eaf34"/>
        </g>
        <g id="Group_35626" data-name="Group 35626" transform="translate(3.989)">
          <path id="Path_86488" data-name="Path 86488" d="M104.725,1140.37H65.563a.956.956,0,0,1-.449-1.8L84.7,1128.157a.956.956,0,0,1,.9,0l19.582,10.413a.956.956,0,0,1-.449,1.8ZM69.4,1138.457h31.494l-15.747-8.374Z" transform="translate(-64.607 -1128.041)" fill="#0eaf34"/>
        </g>
        <g id="Group_35627" data-name="Group 35627" transform="translate(4.619 36.341)">
          <path id="Path_86489" data-name="Path 86489" d="M104.044,1163.3h-37.9a.957.957,0,0,1,0-1.913h37.9a.956.956,0,0,1,0,1.913Z" transform="translate(-65.185 -1161.383)" fill="#0eaf34"/>
        </g>
        <g id="Group_35628" data-name="Group 35628" transform="translate(0 41.319)">
          <path id="Path_86490" data-name="Path 86490" d="M109.044,1167.86H61.9a.956.956,0,1,1,0-1.913h47.141a.956.956,0,1,1,0,1.913Z" transform="translate(-60.947 -1165.95)" fill="#0eaf34"/>
        </g>
        <g id="Group_35629" data-name="Group 35629" transform="translate(12.272 16.468)">
          <path id="Path_86491" data-name="Path 86491" d="M73.162,1164.17a.934.934,0,0,1-.956-.91v-19.2a.957.957,0,0,1,1.912,0v19.2a.934.934,0,0,1-.956.91Z" transform="translate(-72.206 -1143.15)" fill="#0eaf34"/>
        </g>
        <g id="Group_35630" data-name="Group 35630" transform="translate(34.139 16.468)">
          <path id="Path_86492" data-name="Path 86492" d="M93.225,1164.17a.934.934,0,0,1-.956-.91v-19.2a.957.957,0,0,1,1.912,0v19.2a.934.934,0,0,1-.956.91Z" transform="translate(-92.269 -1143.15)" fill="#0eaf34"/>
        </g>
        <g id="Group_35631" data-name="Group 35631" transform="translate(39.011 16.468)">
          <path id="Path_86493" data-name="Path 86493" d="M97.695,1164.17a.934.934,0,0,1-.956-.91v-19.2a.957.957,0,0,1,1.912,0v19.2a.934.934,0,0,1-.956.91Z" transform="translate(-96.739 -1143.15)" fill="#0eaf34"/>
        </g>
        <g id="Group_35635" data-name="Group 35635" transform="translate(20.219 20.17)">
          <g id="Group_35632" data-name="Group 35632" transform="translate(3.066)">
            <path id="Path_86494" data-name="Path 86494" d="M83.08,1149.94a.769.769,0,0,1-.77-.769v-1.85a.77.77,0,0,1,1.54,0v1.85a.77.77,0,0,1-.77.769Z" transform="translate(-82.311 -1146.547)" fill="#0eaf34"/>
          </g>
          <g id="Group_35633" data-name="Group 35633" transform="translate(3.066 9.916)">
            <path id="Path_86495" data-name="Path 86495" d="M83.08,1159.04a.77.77,0,0,1-.77-.77v-1.849a.77.77,0,1,1,1.54,0v1.849a.771.771,0,0,1-.77.77Z" transform="translate(-82.311 -1155.645)" fill="#0eaf34"/>
          </g>
          <g id="Group_35634" data-name="Group 35634" transform="translate(0 2.142)">
            <path id="Path_86496" data-name="Path 86496" d="M83.7,1157.53a6.239,6.239,0,0,1-.7-.04,11.828,11.828,0,0,1-2.39-.619l-.151-.051a.77.77,0,1,1,.486-1.46l.154.05a10.5,10.5,0,0,0,2.075.55,2.428,2.428,0,0,0,2.327-.638.656.656,0,0,0,.049-.708,2.431,2.431,0,0,0-2.19-.823h-.023c-1.725,0-3.029-.6-3.582-1.635a2.176,2.176,0,0,1,.141-2.28,3.92,3.92,0,0,1,3.813-1.325,11.882,11.882,0,0,1,2.411.625l.138.046a.77.77,0,0,1-.486,1.462l-.141-.047a10.745,10.745,0,0,0-2.1-.556,2.458,2.458,0,0,0-2.367.662.644.644,0,0,0-.054.692c.211.4.9.817,2.221.817h.043a3.776,3.776,0,0,1,3.531,1.64,2.2,2.2,0,0,1-.136,2.3,3.585,3.585,0,0,1-3.074,1.338Z" transform="translate(-79.498 -1148.512)" fill="#0eaf34"/>
          </g>
        </g>
      </g>
    </g>
  </g>
</svg>
