<svg id="icons_spite_80_company_support" xmlns="http://www.w3.org/2000/svg" width="320" height="80" viewBox="0 0 320 80">
  <g id="Icon_Support" transform="translate(0 -12)">
    <rect id="Rectangle_1" data-name="Rectangle 1" width="80" height="80" transform="translate(0 12)" fill="#eee" opacity="0"/>
    <g id="Group_36656" data-name="Group 36656" transform="translate(-271.729 -271.927)">
      <path id="Path_87280" data-name="Path 87280" d="M347.055,316.775h-1.329a34.93,34.93,0,0,0-68.793,0h-1.176a3.032,3.032,0,0,0-3.028,3.029v12.225a3.032,3.032,0,0,0,3.028,3.029h4.067a3.032,3.032,0,0,0,3.028-3.029V319.8a3.032,3.032,0,0,0-3.028-3.029h-.391a32.471,32.471,0,0,1,63.792,0h-.235a3.034,3.034,0,0,0-3.03,3.03v12.222a3.032,3.032,0,0,0,1.6,2.67c-4.248,10.979-13.3,18.193-25.121,20.006a4.032,4.032,0,0,0-3.782-2.646H310a4.026,4.026,0,1,0,0,8.052h2.656a4.032,4.032,0,0,0,3.873-2.93c13.051-1.9,23.009-9.906,27.526-22.121h3a3.033,3.033,0,0,0,3.03-3.029V319.806a3.033,3.033,0,0,0-3.03-3.031ZM280.392,319.8v12.225a.568.568,0,0,1-.568.568h-4.067a.568.568,0,0,1-.568-.568V319.8a.569.569,0,0,1,.568-.568h4.067A.569.569,0,0,1,280.392,319.8Zm32.266,37.844H310a1.565,1.565,0,0,1,0-3.13h2.656a1.565,1.565,0,0,1,0,3.13Zm34.966-25.62a.57.57,0,0,1-.569.569H342.99a.57.57,0,0,1-.569-.569V319.806a.57.57,0,0,1,.569-.57h4.064a.57.57,0,0,1,.569.57Z" fill="#0eaf34"/>
      <path id="Path_87281" data-name="Path 87281" d="M393.057,404.118a21.879,21.879,0,0,0,16.17-7.131,1.107,1.107,0,0,0,.111-.106,1.119,1.119,0,0,0,.1-.125,21.887,21.887,0,0,0,0-29.141,1.125,1.125,0,0,0-.1-.125,1.1,1.1,0,0,0-.111-.105,21.9,21.9,0,0,0-32.342,0,1.1,1.1,0,0,0-.11.1,1.093,1.093,0,0,0-.1.124,21.887,21.887,0,0,0,0,29.144,1.006,1.006,0,0,0,.2.228,21.879,21.879,0,0,0,16.182,7.137Zm-19.688-20.826h7.313a36.257,36.257,0,0,0,1.294,8.8,19.842,19.842,0,0,0-4.242,2.5,19.623,19.623,0,0,1-4.366-11.3Zm4.365-13.5a19.845,19.845,0,0,0,4.242,2.5,36.257,36.257,0,0,0-1.294,8.8h-7.313a19.622,19.622,0,0,1,4.364-11.3Zm35.012,11.292h-7.313a36.254,36.254,0,0,0-1.294-8.8,19.845,19.845,0,0,0,4.242-2.5,19.622,19.622,0,0,1,4.364,11.29Zm-4.365,13.5a19.849,19.849,0,0,0-4.242-2.5,36.253,36.253,0,0,0,1.294-8.795h7.313a19.623,19.623,0,0,1-4.366,11.294ZM394.163,392.1a26.153,26.153,0,0,1,7.235,1.3,22.349,22.349,0,0,1-1.335,2.992c-1.652,3.05-3.715,4.924-5.9,5.4Zm0-2.213v-6.592h9.055a34.086,34.086,0,0,1-1.154,8,28.416,28.416,0,0,0-7.9-1.411Zm0-8.8v-6.592a28.421,28.421,0,0,0,7.9-1.406,34.09,34.09,0,0,1,1.154,8Zm0-8.8V362.6c2.185.475,4.248,2.35,5.9,5.4a22.363,22.363,0,0,1,1.335,2.992,26.161,26.161,0,0,1-7.235,1.287Zm-2.212,0a26.159,26.159,0,0,1-7.235-1.3,22.361,22.361,0,0,1,1.335-2.992c1.652-3.049,3.715-4.924,5.9-5.4Zm0,2.213v6.592H382.9a34.1,34.1,0,0,1,1.153-8,28.419,28.419,0,0,0,7.9,1.4Zm0,8.8v6.592a28.418,28.418,0,0,0-7.9,1.406,34.1,34.1,0,0,1-1.153-8Zm0,8.8v9.688c-2.185-.475-4.248-2.35-5.9-5.4a22.343,22.343,0,0,1-1.335-2.992,26.157,26.157,0,0,1,7.234-1.3Zm-7.846,5.342a17.429,17.429,0,0,0,2.281,3.3,19.763,19.763,0,0,1-7.161-4.517,17.575,17.575,0,0,1,3.432-2.026,24.464,24.464,0,0,0,1.443,3.24Zm17.9,0a24.454,24.454,0,0,0,1.448-3.239,17.569,17.569,0,0,1,3.432,2.026,19.764,19.764,0,0,1-7.161,4.517,17.443,17.443,0,0,0,2.284-3.307Zm1.449-27.268a24.481,24.481,0,0,0-1.449-3.239,17.432,17.432,0,0,0-2.281-3.3,19.762,19.762,0,0,1,7.161,4.517,17.584,17.584,0,0,1-3.428,2.019ZM384.1,366.932a24.455,24.455,0,0,0-1.449,3.239,17.583,17.583,0,0,1-3.432-2.026,19.763,19.763,0,0,1,7.161-4.517A17.433,17.433,0,0,0,384.1,366.932Z" transform="translate(-81.65 -60.018)" fill="#0eaf34"/>
    </g>
  </g>
  <g id="Icon_AccountManagers" transform="translate(80 -12)">
    <rect id="Rectangle_1-2" data-name="Rectangle 1" width="80" height="80" transform="translate(0 12)" fill="#eee" opacity="0"/>
    <g id="Group_36553" data-name="Group 36553" transform="translate(-272.166 -303.745)">
      <g id="St" transform="translate(292.36 330.76)">
        <text id="St-2" data-name="St" transform="translate(0 29)" fill="#0eaf34" font-size="29" font-family="SegoeUI, Segoe UI"><tspan x="0" y="0">St</tspan></text>
        <text id="St-3" data-name="St" transform="translate(0 29)" fill="none" font-size="29" font-family="SegoeUI, Segoe UI"><tspan x="0" y="0">St</tspan></text>
      </g>
      <path id="Path_87277" data-name="Path 87277" d="M336.326,336.715a30.74,30.74,0,0,0-4.956-4.9,30.558,30.558,0,0,0-23.578-11.07H286.561v8.55a30.612,30.612,0,0,0,2.385,46.2,30.5,30.5,0,0,0,4.344,4.235,30.559,30.559,0,0,0,23.958,11.554h.023a30.616,30.616,0,0,0,19.055-54.575Zm-47.38-5.763.454-.42v-6.951h18.393a27.789,27.789,0,1,1-18.848,7.369Zm18.846,51.041h.023a30.615,30.615,0,0,0,29.756-37.8,27.733,27.733,0,0,1-36.007,37.168,30.714,30.714,0,0,0,6.228.632Zm28.3-.9a27.774,27.774,0,0,1-31.379,4.356,30.706,30.706,0,0,0,7.643.96h.023a30.645,30.645,0,0,0,29.65-38.262,27.782,27.782,0,0,1-5.934,32.942Z" fill="#0eaf34"/>
    </g>
  </g>
  <g id="Icon_DepositWithdrawal" transform="translate(160 -12)">
    <rect id="Rectangle_1-3" data-name="Rectangle 1" width="80" height="80" transform="translate(0 12)" fill="#eee" opacity="0"/>
    <g id="deposits-icon" transform="translate(9.001 21)">
      <g id="Group_36077" data-name="Group 36077" transform="translate(14.599 11.388)">
        <path id="Path_86886" data-name="Path 86886" d="M1193.89,816.417h-30.671a1.3,1.3,0,0,1-1.3-1.3V766.782a1.3,1.3,0,1,1,2.6,0v47.032h28.071V766.782a1.3,1.3,0,1,1,2.6,0v48.333a1.3,1.3,0,0,1-1.3,1.3Z" transform="translate(-1161.913 -765.481)" fill="#0eaf34"/>
      </g>
      <g id="Group_36078" data-name="Group 36078" transform="translate(19.953 22.827)">
        <path id="Path_86887" data-name="Path 86887" d="M1177.23,791.682c-6.222,0-11.283-3.942-11.283-8.788s5.062-8.788,11.283-8.788,11.281,3.943,11.281,8.788S1183.451,791.682,1177.23,791.682Zm0-14.973c-4.788,0-8.682,2.775-8.682,6.185s3.894,6.186,8.682,6.186,8.68-2.775,8.68-6.186S1182.017,776.709,1177.23,776.709Z" transform="translate(-1165.95 -774.106)" fill="#0eaf34"/>
      </g>
      <g id="Group_36079" data-name="Group 36079" transform="translate(34.688 49.01)">
        <path id="Path_86888" data-name="Path 86888" d="M1178.36,805.68a1.3,1.3,0,0,1-1.3-1.3,10.545,10.545,0,0,1,10.532-10.532,1.3,1.3,0,1,1,0,2.6,7.941,7.941,0,0,0-7.931,7.93,1.3,1.3,0,0,1-1.3,1.3Z" transform="translate(-1177.06 -793.847)" fill="#0eaf34"/>
      </g>
      <g id="Group_36080" data-name="Group 36080" transform="translate(15.951 49.01)">
        <path id="Path_86889" data-name="Path 86889" d="M1173.46,805.68a1.3,1.3,0,0,1-1.3-1.3,7.94,7.94,0,0,0-7.932-7.93,1.3,1.3,0,1,1,0-2.6,10.545,10.545,0,0,1,10.532,10.532,1.3,1.3,0,0,1-1.3,1.3Z" transform="translate(-1162.933 -793.847)" fill="#0eaf34"/>
      </g>
      <g id="Group_36081" data-name="Group 36081" transform="translate(28 43.372)">
        <path id="Path_86890" data-name="Path 86890" d="M1175.25,796.069a3.236,3.236,0,1,1,3.236-3.236A3.236,3.236,0,0,1,1175.25,796.069Zm0-3.87a.634.634,0,1,0,.635.634.634.634,0,0,0-.635-.634Z" transform="translate(-1172.017 -789.596)" fill="#0eaf34"/>
      </g>
      <g id="Group_36082" data-name="Group 36082" transform="translate(28 13.414)">
        <path id="Path_86891" data-name="Path 86891" d="M1175.25,773.484a3.238,3.238,0,1,1,3.236-3.237,3.238,3.238,0,0,1-3.236,3.237Zm0-3.872a.634.634,0,1,0,.635.634.634.634,0,0,0-.635-.634Z" transform="translate(-1172.017 -767.009)" fill="#0eaf34"/>
      </g>
      <g id="Group_36083" data-name="Group 36083" transform="translate(7.687 11.197)">
        <path id="Path_86892" data-name="Path 86892" d="M1200.59,775.822h-4.769a1.3,1.3,0,1,1,0-2.6h4.769a.616.616,0,0,0,.609-.608V768.55a.624.624,0,0,0-.609-.607h-40.678a.624.624,0,0,0-.609.607v4.064a.624.624,0,0,0,.609.608h4.768a1.3,1.3,0,1,1,0,2.6h-4.768a3.215,3.215,0,0,1-3.209-3.211v-4.064a3.214,3.214,0,0,1,3.209-3.21h40.678a3.213,3.213,0,0,1,3.21,3.21v4.064a3.214,3.214,0,0,1-3.21,3.211Z" transform="translate(-1156.702 -765.337)" fill="#0eaf34"/>
      </g>
      <g id="Group_36084" data-name="Group 36084">
        <path id="Path_86893" data-name="Path 86893" d="M1209.61,788.557h-11.9a1.3,1.3,0,1,1,0-2.6h11.9a1.212,1.212,0,0,0,1.167-1.167V760.664a1.2,1.2,0,0,0-1.167-1.167h-54.938a1.169,1.169,0,0,0-1.166,1.167v24.123a1.2,1.2,0,0,0,1.166,1.167h11.9a1.3,1.3,0,1,1,0,2.6h-11.9a3.772,3.772,0,0,1-3.767-3.769V760.664a3.772,3.772,0,0,1,3.767-3.769h54.938a3.82,3.82,0,0,1,3.768,3.769v24.123A3.82,3.82,0,0,1,1209.61,788.557Z" transform="translate(-1150.906 -756.895)" fill="#0eaf34"/>
      </g>
    </g>
  </g>
  <g id="Icon_Bonuses" transform="translate(240 -12)">
    <rect id="Rectangle_1-4" data-name="Rectangle 1" width="80" height="80" transform="translate(0 12)" fill="#eee" opacity="0"/>
    <g id="Group_35471" data-name="Group 35471" transform="translate(-1504.314 -808.685)">
      <g id="Group_35428" data-name="Group 35428" transform="translate(1537.056 824.682)">
        <g id="Group_35426" data-name="Group 35426">
          <path id="Path_81639" data-name="Path 81639" d="M1535.35,827.235a3.07,3.07,0,1,1,0,6.14,3.07,3.07,0,0,1,0-6.14Z" transform="translate(-1529.725 -824.682)" fill="#0eaf34"/>
        </g>
        <g id="Group_35427" data-name="Group 35427">
          <path id="Path_81640" data-name="Path 81640" d="M1536.36,835.93h-2.016v-2.554a2.063,2.063,0,0,0-2.062-2.062h-2.553V829.3h2.553a2.063,2.063,0,0,0,2.062-2.062v-2.553h2.016v2.553a2.064,2.064,0,0,0,2.062,2.062v2.016a2.064,2.064,0,0,0-2.062,2.062Zm-1.4-5.625a4.066,4.066,0,0,1,.388.389,4.141,4.141,0,0,1,.389-.389,4.289,4.289,0,0,1-.389-.388,4.175,4.175,0,0,1-.384.388Zm6.012,1.008h-2.554V829.3h2.554Z" transform="translate(-1529.725 -824.682)" fill="#0eaf34"/>
        </g>
      </g>
      <g id="Group_35430" data-name="Group 35430" transform="translate(1516.726 855.608)">
        <g id="Group_35429" data-name="Group 35429">
          <path id="Path_81641" data-name="Path 81641" d="M1542.07,885.522l-27.262-35.975a1.139,1.139,0,0,1,.907-1.827h52.78a1.1,1.1,0,0,1,.882,1.765Zm-24.59-35.785,24.59,32.448,24.588-32.448Z" transform="translate(-1514.58 -847.72)" fill="#0eaf34"/>
        </g>
      </g>
      <g id="Group_35432" data-name="Group 35432" transform="translate(1516.71 842.541)">
        <g id="Group_35431" data-name="Group 35431">
          <path id="Path_81642" data-name="Path 81642" d="M1568.52,853.069h-52.811a1.139,1.139,0,0,1-.942-1.779l9.033-13.3h36.56l9.073,13.362a1.1,1.1,0,0,1-.913,1.721Zm-51.156-2.016H1566.8L1559.3,840h-34.423Z" transform="translate(-1514.568 -837.986)" fill="#0eaf34"/>
        </g>
      </g>
      <g id="Group_35435" data-name="Group 35435" transform="translate(1516.768 842.983)">
        <g id="Group_35434" data-name="Group 35434">
          <g id="Group_35433" data-name="Group 35433">
            <path id="Path_81643" data-name="Path 81643" d="M1567.85,852.515l-8.039-11.839-8.038,11.839h-1.67l-8.039-11.839-8.039,11.839h-1.668l-8.039-11.839-8.038,11.839-1.668-1.133,8.872-13.067h1.668l8.039,11.839,8.039-11.839h1.668l8.039,11.839,8.038-11.839h1.668l8.873,13.067Z" transform="translate(-1514.612 -838.315)" fill="#0eaf34"/>
          </g>
        </g>
      </g>
      <g id="Group_35438" data-name="Group 35438" transform="translate(1534.123 855.392)">
        <g id="Group_35437" data-name="Group 35437">
          <g id="Group_35436" data-name="Group 35436">
            <path id="Path_81644" data-name="Path 81644" d="M1537.64,884.916a1.008,1.008,0,0,1-.977-.761l-9.12-36.1,1.955-.494,8.143,32.233,8.142-32.233,1.955.494-9.119,36.1a1.009,1.009,0,0,1-.979.761Z" transform="translate(-1527.54 -847.559)" fill="#0eaf34"/>
          </g>
        </g>
      </g>
      <g id="Group_35440" data-name="Group 35440" transform="translate(1577.647 871.068)">
        <g id="Group_35439" data-name="Group 35439">
          <path id="Path_81645" data-name="Path 81645" d="M1563.07,860.793a1.555,1.555,0,1,1-1.556-1.556,1.555,1.555,0,0,1,1.556,1.556Z" transform="translate(-1559.963 -859.237)" fill="#0eaf34"/>
        </g>
      </g>
      <g id="Group_35442" data-name="Group 35442" transform="translate(1551.589 888.986)">
        <g id="Group_35441" data-name="Group 35441">
          <circle id="Ellipse_2232" data-name="Ellipse 2232" cx="2.124" cy="2.124" r="2.124" transform="translate(0 0)" fill="#0eaf34"/>
        </g>
      </g>
      <g id="Group_35444" data-name="Group 35444" transform="translate(1534.287 892.968)">
        <g id="Group_35443" data-name="Group 35443">
          <path id="Path_81646" data-name="Path 81646" d="M1531.38,877.409a1.857,1.857,0,1,1-.544-1.314,1.858,1.858,0,0,1,.544,1.314Z" transform="translate(-1527.662 -875.551)" fill="#0eaf34"/>
        </g>
      </g>
      <g id="Group_35446" data-name="Group 35446" transform="translate(1508.312 857.56)">
        <g id="Group_35445" data-name="Group 35445">
          <path id="Path_81647" data-name="Path 81647" d="M1512.03,851.032a1.858,1.858,0,1,1-1.858-1.858,1.858,1.858,0,0,1,1.858,1.858Z" transform="translate(-1508.312 -849.174)" fill="#0eaf34"/>
        </g>
      </g>
      <g id="Group_35448" data-name="Group 35448" transform="translate(1527.426 835.383)">
        <g id="Group_35447" data-name="Group 35447">
          <path id="Path_81648" data-name="Path 81648" d="M1525.74,834.247a1.593,1.593,0,1,1-1.594-1.594,1.593,1.593,0,0,1,1.594,1.594Z" transform="translate(-1522.551 -832.654)" fill="#0eaf34"/>
        </g>
      </g>
      <g id="Group_35470" data-name="Group 35470" transform="translate(1512.877 834.375)">
        <g id="Group_35451" data-name="Group 35451" transform="translate(46.996 42.551)">
          <g id="Group_35450" data-name="Group 35450">
            <g id="Group_35449" data-name="Group 35449">
              <path id="Path_81649" data-name="Path 81649" d="M1551.91,873.98a5.19,5.19,0,1,1,5.189-5.19A5.19,5.19,0,0,1,1551.91,873.98Zm0-8.364a3.174,3.174,0,1,0,3.173,3.175,3.174,3.174,0,0,0-3.173-3.175Z" transform="translate(-1546.722 -863.601)" fill="#0eaf34"/>
            </g>
          </g>
        </g>
        <g id="Group_35454" data-name="Group 35454" transform="translate(54.697 27.814)">
          <g id="Group_35453" data-name="Group 35453">
            <g id="Group_35452" data-name="Group 35452">
              <path id="Path_81650" data-name="Path 81650" d="M1556.39,860.481a3.929,3.929,0,1,1,3.929-3.929,3.929,3.929,0,0,1-3.929,3.929Zm0-5.842a1.913,1.913,0,1,0,1.913,1.913,1.913,1.913,0,0,0-1.913-1.913Z" transform="translate(-1552.459 -852.623)" fill="#0eaf34"/>
            </g>
          </g>
        </g>
        <g id="Group_35457" data-name="Group 35457" transform="translate(57.974 6.439)">
          <g id="Group_35456" data-name="Group 35456">
            <g id="Group_35455" data-name="Group 35455">
              <path id="Path_81651" data-name="Path 81651" d="M1559.25,845.4a4.348,4.348,0,1,1,4.348-4.348A4.348,4.348,0,0,1,1559.25,845.4Zm0-6.68a2.332,2.332,0,1,0,2.332,2.332,2.332,2.332,0,0,0-2.332-2.332Z" transform="translate(-1554.9 -836.7)" fill="#0eaf34"/>
            </g>
          </g>
        </g>
        <g id="Group_35460" data-name="Group 35460" transform="translate(0.83 31.427)">
          <g id="Group_35459" data-name="Group 35459">
            <g id="Group_35458" data-name="Group 35458">
              <path id="Path_81652" data-name="Path 81652" d="M1516.36,863.371a4.028,4.028,0,1,1,4.029-4.028,4.028,4.028,0,0,1-4.029,4.028Zm0-6.041a2.012,2.012,0,1,0,2.012,2.012A2.012,2.012,0,0,0,1516.36,857.33Z" transform="translate(-1512.331 -855.314)" fill="#0eaf34"/>
            </g>
          </g>
        </g>
        <g id="Group_35463" data-name="Group 35463" transform="translate(5.147 47.209)">
          <g id="Group_35462" data-name="Group 35462">
            <g id="Group_35461" data-name="Group 35461">
              <path id="Path_81653" data-name="Path 81653" d="M1520.75,877.481a5.2,5.2,0,1,1,5.206-5.2,5.2,5.2,0,0,1-5.206,5.2Zm0-8.394a3.189,3.189,0,1,0,3.19,3.189,3.189,3.189,0,0,0-3.19-3.189Z" transform="translate(-1515.547 -867.071)" fill="#0eaf34"/>
            </g>
          </g>
        </g>
        <g id="Group_35466" data-name="Group 35466" transform="translate(0 3.918)">
          <g id="Group_35465" data-name="Group 35465">
            <g id="Group_35464" data-name="Group 35464">
              <path id="Path_81654" data-name="Path 81654" d="M1516.44,844.272a4.725,4.725,0,1,1,4.725-4.725,4.725,4.725,0,0,1-4.725,4.725Zm0-7.434a2.709,2.709,0,1,0,2.709,2.709,2.709,2.709,0,0,0-2.709-2.709Z" transform="translate(-1511.713 -834.822)" fill="#0eaf34"/>
            </g>
          </g>
        </g>
        <g id="Group_35469" data-name="Group 35469" transform="translate(43.147)">
          <g id="Group_35468" data-name="Group 35468">
            <g id="Group_35467" data-name="Group 35467">
              <path id="Path_81655" data-name="Path 81655" d="M1546.45,837.1a2.6,2.6,0,1,1,2.6-2.6A2.6,2.6,0,0,1,1546.45,837.1Zm0-3.186a.585.585,0,1,0,.585.585.585.585,0,0,0-.585-.585Z" transform="translate(-1543.855 -831.903)" fill="#0eaf34"/>
            </g>
          </g>
        </g>
      </g>
    </g>
  </g>
</svg>
