<svg xmlns="http://www.w3.org/2000/svg" width="150" height="19.999" viewBox="0 0 150 19.999">
  <g id="IXBROKERSLogoDark" transform="translate(-102.524 -62.61)">
    <path id="Path_86" data-name="Path 86" d="M102.524,82.168V64.015c0-.382.182-.573.548-.573h3.916a.507.507,0,0,1,.574.573V82.168a.507.507,0,0,1-.574.572h-3.916c-.366,0-.548-.191-.548-.572" transform="translate(0 -0.416)" fill="#fff"/>
    <path id="Path_87" data-name="Path 87" d="M135.206,64.017l-5.95,8.868,6.237,9.285a.41.41,0,0,1,.066.417.4.4,0,0,1-.378.155h-4.464a.963.963,0,0,1-.809-.572l-3.472-5.15-3.47,5.15a1.73,1.73,0,0,1-.392.469.808.808,0,0,1-.444.1h-4.412a.415.415,0,0,1-.378-.143c-.062-.1-.04-.238.064-.429l6.238-9.285-5.9-8.868a.484.484,0,0,1-.106-.4c.035-.112.149-.168.341-.168h4.515a.676.676,0,0,1,.444.13,2.114,2.114,0,0,1,.366.442l3.157,4.681,3.132-4.681a1.7,1.7,0,0,1,.366-.429.735.735,0,0,1,.469-.143h4.464c.19,0,.312.06.365.182a.4.4,0,0,1-.052.389" transform="translate(-7.391 -0.418)" fill="#fff"/>
    <path id="Path_88" data-name="Path 88" d="M158.8,82.194V64.041c0-.4.19-.6.573-.6h8.275a5.524,5.524,0,0,1,2.167.429,5.426,5.426,0,0,1,1.774,1.2,5.827,5.827,0,0,1,1.2,1.781,5.386,5.386,0,0,1,.444,2.185,4.966,4.966,0,0,1-1.175,3.33,6.706,6.706,0,0,1,1.475,2.04,5.794,5.794,0,0,1,.562,2.511,5.634,5.634,0,0,1-.457,2.237,5.972,5.972,0,0,1-1.239,1.86,6.046,6.046,0,0,1-1.814,1.26,5.2,5.2,0,0,1-2.18.469h-9.031c-.384,0-.574-.182-.574-.547m9.421-13.03a1.843,1.843,0,0,0-.548-1.339,1.886,1.886,0,0,0-1.408-.56h-2.4v3.772h2.349a2.033,2.033,0,0,0,1.46-.52,1.776,1.776,0,0,0,.549-1.353m.706,7.542a2.069,2.069,0,0,0-.157-.78,2.433,2.433,0,0,0-.418-.689,2.2,2.2,0,0,0-.626-.494,1.711,1.711,0,0,0-.809-.194h-3.053v4.343h3.053a1.8,1.8,0,0,0,1.435-.676,2.279,2.279,0,0,0,.575-1.51" transform="translate(-28.137 -0.416)" fill="#fff"/>
    <path id="Path_89" data-name="Path 89" d="M195.7,82.167V64.014a.663.663,0,0,1,.13-.392.483.483,0,0,1,.418-.182h8.665a5.612,5.612,0,0,1,2.518.56,6.458,6.458,0,0,1,1.958,1.47,6.672,6.672,0,0,1,1.71,4.447,5.644,5.644,0,0,1-.874,2.99,7.166,7.166,0,0,1-2.31,2.341l3.733,6.919a.408.408,0,0,1,.052.39c-.052.122-.174.182-.366.182h-4.7a.681.681,0,0,1-.417-.1,1.276,1.276,0,0,1-.287-.442l-3.107-5.879H200.74v5.852a.507.507,0,0,1-.574.572h-3.914c-.366,0-.548-.191-.548-.572m7.934-14.72h-2.9v4.707h2.9a2.2,2.2,0,0,0,.94-.195,2.457,2.457,0,0,0,.731-.52,2.312,2.312,0,0,0,.483-.755,2.35,2.35,0,0,0,.169-.871,2.3,2.3,0,0,0-.169-.846,2.476,2.476,0,0,0-.483-.767,2.554,2.554,0,0,0-.731-.545,2.081,2.081,0,0,0-.94-.208" transform="translate(-46.59 -0.415)" fill="#fff"/>
    <path id="Path_90" data-name="Path 90" d="M230.574,72.831a9.671,9.671,0,0,1,.783-3.89,10.173,10.173,0,0,1,2.127-3.159,9.9,9.9,0,0,1,3.171-2.134,10.05,10.05,0,0,1,7.764,0,10.026,10.026,0,0,1,5.313,5.293,9.983,9.983,0,0,1,0,7.751,9.934,9.934,0,0,1-2.14,3.147,10.228,10.228,0,0,1-3.173,2.12,10.062,10.062,0,0,1-7.764,0,9.894,9.894,0,0,1-5.3-5.267,9.594,9.594,0,0,1-.783-3.861m5.036-.027a5.54,5.54,0,0,0,.365,2.028,5,5,0,0,0,1.019,1.626,4.779,4.779,0,0,0,1.566,1.092,5.069,5.069,0,0,0,3.966,0,4.779,4.779,0,0,0,1.566-1.092,4.98,4.98,0,0,0,1.018-1.626,5.52,5.52,0,0,0,.366-2.028,5.452,5.452,0,0,0-.366-2,5.114,5.114,0,0,0-1.018-1.638,4.7,4.7,0,0,0-1.566-1.1,5.069,5.069,0,0,0-3.966,0,4.7,4.7,0,0,0-1.566,1.1,5.152,5.152,0,0,0-1.019,1.638,5.472,5.472,0,0,0-.365,2" transform="translate(-64.025 -0.129)" fill="#fff"/>
    <path id="Path_91" data-name="Path 91" d="M337.9,82.168V64.015a.653.653,0,0,1,.13-.39.476.476,0,0,1,.417-.183h8.666a5.621,5.621,0,0,1,2.518.56,6.458,6.458,0,0,1,1.958,1.47,6.672,6.672,0,0,1,1.71,4.447,5.653,5.653,0,0,1-.874,2.99,7.208,7.208,0,0,1-2.31,2.342l3.733,6.917a.407.407,0,0,1,.051.39c-.051.12-.174.182-.365.182h-4.7a.67.67,0,0,1-.417-.1,1.289,1.289,0,0,1-.288-.442l-3.106-5.876h-2.088v5.851a.506.506,0,0,1-.574.572h-3.916c-.364,0-.546-.191-.546-.573m7.934-14.721h-2.9v4.707h2.9a2.187,2.187,0,0,0,.94-.195,2.44,2.44,0,0,0,.731-.52,2.275,2.275,0,0,0,.481-.755,2.332,2.332,0,0,0,.17-.871,2.262,2.262,0,0,0-.17-.844,2.465,2.465,0,0,0-.481-.768,2.554,2.554,0,0,0-.731-.545,2.081,2.081,0,0,0-.94-.209" transform="translate(-117.688 -0.416)" fill="#fff"/>
    <path id="Path_92" data-name="Path 92" d="M375.849,76.108c.157.122.347.282.574.481a9.039,9.039,0,0,0,.783.611,6.276,6.276,0,0,0,1.318.691,3.926,3.926,0,0,0,1.37.247,2.409,2.409,0,0,0,1.84-.548,1.858,1.858,0,0,0,.484-1.273,1,1,0,0,0-.314-.728,3.534,3.534,0,0,0-.744-.56,5.6,5.6,0,0,0-.913-.416q-.483-.168-.849-.3a12.921,12.921,0,0,1-4.711-2.575,4.989,4.989,0,0,1-1.553-3.771,4.789,4.789,0,0,1,1.892-3.9,6.5,6.5,0,0,1,2.179-1.08,10.59,10.59,0,0,1,5.129-.118,8.077,8.077,0,0,1,2.154.859,11.387,11.387,0,0,1,1.539,1.066q.654.547.653.91a1.117,1.117,0,0,1-.339.625l-2.01,2.133a.627.627,0,0,1-.444.208.537.537,0,0,1-.326-.106c-.1-.068-.205-.155-.326-.259l-.131-.1a8.664,8.664,0,0,0-1.266-.871,3.11,3.11,0,0,0-1.578-.429,3.549,3.549,0,0,0-1.488.286,1.045,1.045,0,0,0-.626,1.041,1.216,1.216,0,0,0,.731,1.117,14.219,14.219,0,0,0,2.167.859q1.382.466,2.557.962a8.265,8.265,0,0,1,2.023,1.183,4.9,4.9,0,0,1,1.317,1.639,5.138,5.138,0,0,1,.471,2.3,5.637,5.637,0,0,1-.587,2.587,6,6,0,0,1-1.605,1.977,7.608,7.608,0,0,1-2.4,1.275,9.51,9.51,0,0,1-2.976.454,7.864,7.864,0,0,1-2.01-.261,10.82,10.82,0,0,1-1.918-.7,10.613,10.613,0,0,1-1.736-1.041,9.312,9.312,0,0,1-1.435-1.3l-.052-.027a.143.143,0,0,0-.052-.064.164.164,0,0,1-.052-.04.866.866,0,0,1-.287-.518.772.772,0,0,1,.287-.494l2.27-2.161a.843.843,0,0,1,.444-.18.95.95,0,0,1,.548.312" transform="translate(-134.888)" fill="#fff"/>
    <path id="Path_93" data-name="Path 93" d="M304.19,82.17V64.015a.506.506,0,0,1,.574-.573h12.974a.507.507,0,0,1,.574.573v3.328a.508.508,0,0,1-.574.573h-8.51v3.2H315.7q.627,0,.628.6v2.679q0,.572-.628.572h-6.473v3.33H318a.507.507,0,0,1,.574.572v3.3a.507.507,0,0,1-.574.573H304.764a.507.507,0,0,1-.574-.573" transform="translate(-100.833 -0.416)" fill="#fff"/>
    <path id="Path_94" data-name="Path 94" d="M286.938,82.142l-6.665-9.054,5.986-9.049a.669.669,0,0,0,.156-.4c0-.131-.1-.195-.312-.195h-4.7a2.259,2.259,0,0,0-.523.051.913.913,0,0,0-.444.365l-5.708,8.771a.863.863,0,0,0-.185.462.778.778,0,0,0,.094.379l6.375,8.7a1.35,1.35,0,0,0,.338.428.738.738,0,0,0,.471.143h4.933c.4,0,.46-.2.181-.6" transform="translate(-86.011 -0.416)" fill="#0eaf34"/>
  </g>
</svg>
